Coordinates
version=1
nRows=49
nColumns=12
inDegrees=yes

Units are S.I. units (second, meters, Newtons, ...)
Angles are in degrees

endheader
time	SC_y	SC_z	SC_x	AC_y	AC_z	AC_x	GH_y	GH_z	GH_yy	EL_x	PS_y
       0.0              -45.46          38.76          7.436          69.19          8.777         -17.36          137.3           60.5         -113.3           14.3          140.7
   0.01265              -45.45          38.76           7.44          69.18          8.776         -17.36          137.3           60.5         -113.3           14.3          140.7
    0.0253              -45.45          38.75          7.445          69.18          8.776         -17.36          137.3           60.5         -113.3          14.31          140.7
   0.03795              -45.45          38.75           7.45          69.17          8.775         -17.36          137.3          60.51         -113.3          14.32          140.6
   0.05059              -45.45          38.75          7.455          69.17          8.774         -17.35          137.3          60.51         -113.3          14.33          140.6
   0.06324              -45.45          38.74          7.461          69.16          8.774         -17.35          137.3          60.51         -113.3          14.33          140.6
   0.07589              -45.45          38.74          7.467          69.15          8.773         -17.35          137.2          60.51         -113.3          14.34          140.6
   0.08854              -45.44          38.74          7.474          69.15          8.772         -17.35          137.2          60.51         -113.3          14.35          140.5
    0.1012              -45.44          38.73          7.481          69.14          8.771         -17.35          137.2          60.51         -113.3          14.36          140.5
    0.1138              -45.44          38.73          7.488          69.13           8.77         -17.35          137.2          60.51         -113.3          14.38          140.5
    0.1265              -45.44          38.72          7.496          69.12          8.769         -17.35          137.2          60.51         -113.3          14.39          140.5
    0.1391              -45.43          38.72          7.505          69.11          8.768         -17.35          137.2          60.52         -113.3           14.4          140.4
    0.1518              -45.43          38.71          7.514           69.1          8.767         -17.35          137.1          60.52         -113.3          14.42          140.4
    0.1644              -45.43          38.71          7.524          69.09          8.766         -17.34          137.1          60.52         -113.3          14.43          140.3
    0.1771              -45.42           38.7          7.535          69.08          8.764         -17.34          137.1          60.52         -113.3          14.45          140.3
    0.1897              -45.42           38.7          7.547          69.06          8.763         -17.34          137.1          60.52         -113.3          14.47          140.3
    0.2024              -45.42          38.69           7.56          69.05          8.761         -17.34          137.0          60.53         -113.3          14.49          140.2
     0.215              -45.41          38.68          7.574          69.03           8.76         -17.34          137.0          60.53         -113.3          14.51          140.1
    0.2277              -45.41          38.67          7.589          69.01          8.758         -17.33          136.9          60.53         -113.3          14.53          140.1
    0.2403               -45.4          38.66          7.606          68.99          8.756         -17.33          136.9          60.54         -113.3          14.56          140.0
     0.253               -45.4          38.65          7.624          68.97          8.753         -17.33          136.9          60.54         -113.2          14.59          139.9
    0.2656              -45.39          38.64          7.644          68.95          8.751         -17.33          136.8          60.54         -113.2          14.62          139.9
    0.2783              -45.38          38.63          7.667          68.93          8.748         -17.32          136.8          60.55         -113.2          14.65          139.8
    0.2909              -45.37          38.62          7.691           68.9          8.745         -17.32          136.7          60.55         -113.2          14.69          139.7
    0.3036              -45.37           38.6          7.719          68.87          8.741         -17.32          136.6          60.56         -113.2          14.73          139.6
    0.3162              -45.36          38.58          7.749          68.83          8.738         -17.31          136.6          60.56         -113.2          14.78          139.4
    0.3289              -45.35          38.57          7.784          68.79          8.733         -17.31          136.5          60.57         -113.2          14.84          139.3
    0.3415              -45.33          38.54          7.822          68.75          8.729          -17.3          136.4          60.58         -113.1           14.9          139.2
    0.3542              -45.32          38.52          7.866           68.7          8.723         -17.29          136.3          60.59         -113.1          14.96          139.0
    0.3668               -45.3          38.49          7.916          68.64          8.717         -17.29          136.1          60.59         -113.1          15.04          138.8
    0.3795              -45.29          38.46          7.972          68.58           8.71         -17.28          136.0          60.61         -113.1          15.13          138.6
    0.3921              -45.27          38.43          8.037           68.5          8.702         -17.27          135.8          60.62         -113.0          15.23          138.3
    0.4047              -45.24          38.38          8.112          68.42          8.692         -17.26          135.7          60.63         -113.0          15.35          138.0
    0.4174              -45.22          38.34          8.199          68.32          8.681         -17.24          135.4          60.65         -113.0          15.48          137.7
      0.43              -45.18          38.28          8.301           68.2          8.669         -17.23          135.2          60.67         -112.9          15.64          137.3
    0.4427              -45.15          38.21          8.421          68.06          8.654         -17.21          134.9          60.69         -112.9          15.83          136.8
    0.4553               -45.1          38.13          8.564           67.9          8.636         -17.19          134.6          60.72         -112.8          16.05          136.2
     0.468              -45.05          38.04          8.735           67.7          8.615         -17.16          134.1          60.75         -112.7          16.31          135.5
    0.4806              -44.98          37.92          8.942          67.47          8.589         -17.13          133.6          60.79         -112.6          16.63          134.7
    0.4933               -44.9          37.79          9.195          67.18          8.557          -17.1          133.0          60.84         -112.5          17.03          133.7
    0.5059              -44.81          37.61          9.507          66.82          8.518         -17.05          132.2           60.9         -112.3          17.51          132.5
    0.5186              -44.68           37.4          9.897          66.38          8.469         -16.99          131.3          60.97         -112.1          18.12          130.9
    0.5312              -44.53          37.13          10.39          65.82          8.408         -16.92          130.1          61.07         -111.9          18.88          129.0
    0.5439              -44.33          36.78          11.01           65.1           8.33         -16.83          128.5          61.19         -111.6          19.85          126.5
    0.5565              -44.08          36.34          11.81          64.19          8.231         -16.71          126.6          61.34         -111.2          21.08          123.3
    0.5692              -43.76          35.77          12.83          63.02          8.103         -16.56          124.1          61.54         -110.7          22.67          119.2
    0.5818              -43.35          35.05          14.14          61.52          7.939         -16.36          120.9          61.79         -110.0           24.7          114.0
    0.5945              -42.84          34.14          15.78          59.64          7.734         -16.12          116.8           62.1         -109.2          27.26          107.5
    0.6071              -42.21          33.03          17.79          57.35          7.484         -15.82          111.9          62.48         -108.3          30.37          99.51
